<?xml version="1.0" standalone="no"?>
<!DOCTYPE svg PUBLIC "-//W3C//DTD SVG 20010904//EN"
 "http://www.w3.org/TR/2001/REC-SVG-20010904/DTD/svg10.dtd">
<svg version="1.0" xmlns="http://www.w3.org/2000/svg"
 width="512.000000pt" height="512.000000pt" viewBox="0 0 512.000000 512.000000"
 preserveAspectRatio="xMidYMid meet">
<metadata>
Created by potrace 1.11, written by Peter Selinger 2001-2013
</metadata>
<g transform="translate(0.000000,512.000000) scale(0.100000,-0.100000)"
fill="#000000" stroke="none">
<path d="M4479 3406 c-2 -2 -24 -6 -49 -9 -308 -39 -595 -306 -681 -633 -21
-80 -29 -241 -16 -330 32 -230 167 -440 370 -577 138 -92 303 -138 481 -132
147 5 259 32 379 91 l47 24 0 145 c0 80 -2 145 -5 145 -3 0 -31 -20 -62 -44
-127 -98 -242 -136 -396 -131 -157 4 -268 50 -381 156 -75 71 -125 143 -156
229 -25 69 -30 98 -35 200 -11 277 159 528 416 611 90 29 223 32 318 8 78 -20
199 -80 263 -130 l38 -31 0 146 0 146 -52 26 c-59 30 -141 60 -208 76 -44 10
-263 22 -271 14z"/>
<path d="M55 3362 c3 -8 48 -89 100 -179 52 -91 95 -169 95 -174 0 -5 5 -9 10
-9 6 0 10 -4 10 -10 0 -5 69 -129 153 -274 l152 -264 -1 -351 0 -351 123 0
123 0 0 352 0 351 99 171 c54 94 108 187 118 206 11 19 86 149 167 289 80 140
146 255 146 257 0 1 -63 2 -141 1 l-140 -2 -181 -315 c-99 -173 -183 -318
-187 -322 -3 -4 -89 139 -191 317 l-185 324 -138 -1 c-122 0 -138 -2 -132 -16z"/>
<path d="M1549 3364 c-3 -11 -5 -377 -4 -814 l0 -795 123 -3 122 -3 0 334 0
334 23 -1 c17 -1 68 -67 238 -311 119 -170 225 -320 235 -333 18 -22 23 -23
165 -20 l146 3 -248 342 c-137 189 -249 345 -249 347 0 2 15 8 33 11 115 25
243 141 291 264 47 120 39 298 -17 401 -58 106 -124 164 -237 207 -94 37 -158
45 -391 50 -215 5 -226 4 -230 -13z m477 -233 c120 -35 175 -94 189 -203 14
-109 -39 -213 -130 -254 -68 -32 -80 -34 -197 -41 l-98 -6 0 263 0 262 103 -6
c56 -3 116 -10 133 -15z"/>
<path d="M2848 3367 c-2 -7 -4 -372 -4 -812 l1 -800 363 -3 362 -2 0 115 0
115 -240 0 -240 0 0 700 0 700 -119 -1 c-84 0 -120 -4 -123 -12z"/>
</g>
</svg>
