<svg version="1" xmlns="http://www.w3.org/2000/svg" width="682.667" height="682.667" viewBox="0 0 512.000000 512.000000"><path d="M408 187.5c-22.3 5-42.7 23.7-50.7 46.7-3.5 9.9-4.3 27.2-1.8 38.2 5.4 24.4 24.9 44.7 49.5 51.6 11.3 3.1 26.7 2.9 38.5-.5 5-1.5 10.8-3.6 13-4.8l4-2.2.3-11.8c.1-6.4-.1-11.7-.5-11.7s-3.3 1.8-6.5 4c-10.3 7.3-16.1 9.4-27.2 9.8-16.8.7-28.2-4-39.3-16.1-20.1-22-16.4-58.4 7.7-76.1 9.6-7.1 15.5-9 28.5-9 9.5 0 11.9.4 17.7 2.7 3.7 1.4 9.4 4.4 12.7 6.6 3.3 2.3 6.3 4.1 6.6 4.1.3 0 .4-5.3.3-11.7l-.3-11.7-3.1-1.8c-1.7-1-6.5-3-10.5-4.5-6.2-2.2-9.4-2.7-19.9-2.9-8.4-.2-14.7.1-19 1.1zM47 188.5c0 .2 9.9 17.7 22 38.8l22 38.4V324h20v-58l22-38.1c12.1-21 22-38.5 22-39s-5.1-.9-11.3-.9h-11.2L117 214.9c-8.5 14.9-15.9 26.6-16.3 26.2-.5-.5-7.5-12.5-15.6-26.7l-14.8-25.9-11.7-.3c-6.4-.1-11.6 0-11.6.3zM172 255.9V324h20l.2-27.7c.3-24.5.5-27.8 1.9-28.1 1.1-.2 7.6 8.3 21 27.7l19.4 28h12.3c6.7.1 12.2-.2 12.2-.7-.1-.4-9.3-13.3-20.5-28.7-19.1-26.2-20.3-28.1-18.2-28.8 12-4.5 21-12.6 24.8-22.5 3.2-8.2 3.2-22.4 0-30.4-2.7-7-9.3-14.5-15.8-18.1-8.3-4.5-16-5.8-37.5-6.4l-19.8-.6v68.2zm41.9-46.2c6.6 1.8 11.4 6.2 13 11.8 3 11-.9 20.9-10.1 25.6-4.2 2.1-20.4 4.6-23.2 3.6-1.4-.6-1.6-3.3-1.6-21.5 0-11.5.3-21.2.7-21.6 1.1-1 14.8.3 21.2 2.1zM280.7 188.7c-.4.3-.7 30.9-.7 68V324h61v-19h-40V188h-9.8c-5.4 0-10.2.3-10.5.7z"/></svg>